<?xml version="1.0" encoding="UTF-8"?>
<svg id="Layer_2" data-name="Layer 2" xmlns="http://www.w3.org/2000/svg" xmlns:xlink="http://www.w3.org/1999/xlink" viewBox="0 0 196 40">
  <defs>
    <style>
      .cls-1 {
        clip-path: url(#clippath);
      }

      .cls-2 {
        stroke: #f8a504;
        stroke-width: 1.2px;
      }

      .cls-2, .cls-3 {
        fill: none;
      }
    </style>
    <clipPath id="clippath">
      <rect class="cls-3" width="196" height="40"/>
    </clipPath>
  </defs>
  <g id="Layer_1-2" data-name="Layer 1">
    <g class="cls-1">
      <path d="M0,0V40H196V0H0ZM30.61,16.8l-7.06,6.88-.28,.27,.07,.39,1.67,9.71s0,.06-.01,.09c-.01,.03-.03,.06-.06,.07-.03,.02-.06,.03-.09,.03-.03,0-.06,0-.09-.02l-8.72-4.58-.35-.18-.35,.18-8.72,4.58s-.05,.02-.08,.02c-.04,0-.07-.01-.1-.03-.03-.02-.05-.04-.06-.07-.01-.03-.02-.06-.01-.09l1.67-9.71,.07-.39-.28-.27L.76,16.8s-.04-.05-.05-.08c0-.03,0-.06,0-.09,.01-.03,.03-.06,.05-.08,.02-.02,.05-.03,.09-.04l9.75-1.42,.39-.06,.17-.35L15.53,5.84s.04-.05,.06-.07c.03-.02,.06-.03,.09-.03s.06,0,.09,.03c.03,.02,.05,.04,.06,.07l4.36,8.83,.18,.35,.39,.06,9.75,1.42c.06,.01,.12,.06,.14,.12,.02,.06,0,.13-.04,.18Zm40.62,0l-7.06,6.88-.28,.28,.07,.39,1.67,9.71s0,.06-.01,.09c-.01,.03-.03,.06-.06,.07-.03,.02-.06,.03-.09,.03-.03,0-.06,0-.09-.02h0s-8.72-4.59-8.72-4.59l-.35-.18-.35,.18-8.72,4.59s-.05,.02-.08,.02c-.04,0-.07-.01-.1-.03-.03-.02-.05-.04-.06-.07-.01-.03-.02-.06-.01-.09l1.67-9.71,.07-.39-.28-.27-7.06-6.88s-.04-.05-.05-.08c0-.03,0-.06,0-.09,0-.03,.03-.06,.05-.08,.02-.02,.05-.03,.09-.04l9.75-1.42,.39-.06,.17-.35,4.36-8.83s.04-.05,.06-.07c.03-.02,.06-.03,.09-.03,.03,0,.06,0,.09,.03,.03,.02,.05,.04,.06,.07l4.36,8.83,.18,.35,.39,.06,9.75,1.42c.06,.01,.12,.06,.14,.12,0,.03,.01,.06,0,.09,0,.03-.02,.06-.05,.08Zm41.34,0l-7.06,6.88-.28,.28,.07,.39,1.67,9.71s0,.06-.01,.09c-.01,.03-.03,.06-.06,.07-.03,.02-.06,.03-.09,.03-.03,0-.06,0-.09-.02h0s-8.72-4.59-8.72-4.59l-.35-.18-.35,.18-8.72,4.59s-.05,.02-.08,.02c-.04,0-.07-.01-.1-.03-.03-.02-.05-.04-.06-.07-.01-.03-.02-.06-.01-.09l1.67-9.71,.07-.39-.28-.27-7.06-6.88s-.04-.05-.05-.08c0-.03,0-.06,0-.09,.01-.03,.03-.06,.05-.08,.02-.02,.05-.03,.09-.04l9.75-1.42,.39-.06,.18-.35,4.36-8.83s.04-.05,.06-.07c.03-.02,.06-.03,.09-.03,.03,0,.06,0,.09,.03,.03,.02,.05,.04,.06,.07l4.36,8.83,.18,.35,.39,.06,9.75,1.42c.06,.01,.12,.06,.14,.12,0,.03,0,.06,0,.09,0,.03-.02,.06-.05,.08Zm41.33,0l-7.06,6.88-.28,.28,.06,.39,1.67,9.71s0,.06,0,.09c-.01,.03-.03,.06-.06,.08-.03,.02-.06,.03-.09,.03-.03,0-.07,0-.09-.02h0s-8.72-4.59-8.72-4.59l-.35-.18-.35,.18-8.72,4.59s-.05,.02-.08,.02c-.04,0-.07-.01-.1-.03-.03-.02-.05-.04-.06-.07-.01-.03-.01-.06,0-.09l1.67-9.71,.06-.39-.28-.27-7.06-6.88s-.04-.05-.05-.08c0-.03,0-.06,0-.09,.01-.03,.03-.06,.05-.08,.02-.02,.06-.03,.09-.04l9.75-1.42,.39-.06,.17-.35,4.36-8.83s.04-.05,.06-.07c.03-.02,.06-.03,.09-.03,.03,0,.06,0,.09,.03,.03,.02,.05,.04,.06,.07l4.36,8.83,.18,.35,.39,.06,9.75,1.42c.06,.01,.12,.06,.14,.12,.01,.03,.01,.06,0,.09,0,.03-.02,.06-.04,.08Zm41.34,0l-7.05,6.88-.28,.28,.07,.39,1.67,9.71s0,.06,0,.09c-.01,.03-.03,.06-.06,.07-.03,.02-.06,.03-.09,.03-.03,0-.07,0-.09-.02h0s-8.72-4.59-8.72-4.59l-.35-.18-.35,.18-8.72,4.59s-.05,.02-.08,.02c-.04,0-.07-.01-.1-.03-.03-.02-.05-.04-.06-.07-.01-.03-.01-.06,0-.09l1.67-9.71,.07-.39-.28-.27-7.06-6.88s-.04-.05-.05-.08c0-.03,0-.06,0-.09,.01-.03,.03-.06,.05-.08,.02-.02,.05-.03,.09-.04l9.75-1.42,.39-.06,.18-.35,4.36-8.83s.03-.05,.06-.07c.03-.02,.06-.03,.09-.03,.03,0,.06,0,.09,.03,.03,.02,.05,.04,.06,.07l4.36,8.83,.18,.35,.39,.06,9.75,1.42c.06,.01,.11,.06,.14,.12h0s.01,.06,0,.09c0,.03-.02,.06-.05,.08Z"/>
      <path class="cls-2" d="M112,16.78s-.05-.09-.08-.13c-.04-.03-.09-.06-.14-.06l-9.29-1.35-.31-.05-.14-.28-4.15-8.41s-.06-.09-.1-.11-.09-.04-.15-.04-.1,.01-.15,.04-.08,.07-.1,.11l-.51-.26,.52,.26-4.15,8.41-.14,.28-.31,.05-9.28,1.35c-.05,0-.1,.03-.14,.06-.04,.03-.07,.08-.08,.13-.02,.05-.02,.1,0,.15,.01,.05,.04,.1,.08,.13l6.72,6.55,.23,.22-.05,.31-1.59,9.25m23.35-16.61s.02,.1,0,.15c-.01,.05-.04,.1-.08,.13l-6.72,6.55-.23,.22,.05,.31,1.59,9.25c0,.05,0,.1-.02,.15-.02,.05-.05,.09-.09,.12-.04,.03-.09,.05-.14,.05-.05,0-.1,0-.15-.03l-8.3-4.36-.28-.15-.28,.15-8.31,4.36M138.72,6.51s.06-.09,.1-.11,.09-.04,.15-.04c.05,0,.1,.01,.15,.04,.04,.03,.08,.07,.1,.11l4.15,8.41,.14,.28,.31,.05,9.29,1.35c.05,0,.1,.03,.14,.06,.04,.03,.07,.08,.09,.13,.02,.05,.02,.1,0,.15-.01,.05-.04,.1-.08,.13l-6.72,6.55-.22,.22,.05,.31,1.59,9.25c0,.05,0,.1-.01,.15-.02,.05-.05,.09-.1,.12-.04,.03-.09,.05-.14,.05-.05,0-.1,0-.15-.03l-8.3-4.36-.28-.15-.28,.15-8.3,4.36s-.08,.03-.13,.03c-.04,0-.08,0-.12-.03-.04-.02-.07-.04-.1-.07-.03-.03-.04-.07-.06-.11,0-.04-.01-.08,0-.12l1.59-9.25,.05-.31-.23-.22-6.72-6.55s-.06-.08-.08-.13c-.01-.05-.01-.1,0-.15,.02-.05,.05-.09,.09-.13,.04-.03,.09-.05,.14-.06l9.28-1.35,.31-.05,.14-.28,4.15-8.41h0Zm-82.67,0s.06-.08,.1-.11c.04-.03,.09-.04,.15-.04,.05,0,.1,.01,.15,.04,.04,.03,.08,.07,.1,.11l4.15,8.41,.14,.28,.31,.05,9.29,1.35c.05,0,.1,.03,.14,.06,.04,.03,.07,.08,.08,.13,.02,.05,.02,.1,0,.15-.01,.05-.04,.1-.08,.13l-6.72,6.55-.23,.22,.05,.31,1.59,9.25c0,.05,0,.1-.02,.15-.02,.05-.05,.09-.09,.12-.04,.03-.09,.05-.14,.05s-.1,0-.15-.03l-8.3-4.36-.28-.15-.28,.15-8.31,4.36s-.08,.03-.13,.03c-.04,0-.08,0-.12-.03-.04-.02-.07-.04-.1-.07-.03-.03-.05-.07-.06-.11-.01-.04-.01-.08,0-.12l1.59-9.25,.05-.31-.23-.22-6.72-6.55s-.06-.08-.08-.13c-.01-.05-.01-.1,0-.15,.02-.05,.05-.09,.09-.13,.04-.03,.09-.05,.14-.06l9.28-1.35,.31-.05,.14-.28,4.15-8.41h0Zm-40.61,0s.06-.09,.1-.11c.04-.03,.09-.04,.15-.04,.05,0,.1,.01,.15,.04,.04,.03,.08,.07,.1,.11l4.15,8.41,.14,.28,.31,.05,9.28,1.35c.05,0,.1,.03,.14,.06,.04,.03,.07,.08,.08,.13,.02,.05,.02,.1,0,.15-.01,.05-.04,.1-.08,.13l-6.72,6.55-.22,.22,.05,.31,1.59,9.25c0,.05,0,.1-.02,.15-.02,.05-.05,.09-.09,.12-.04,.03-.09,.05-.14,.05-.05,0-.1,0-.15-.03l-8.3-4.36-.28-.15-.28,.15-8.3,4.36s-.08,.03-.13,.03c-.04,0-.08,0-.12-.03-.04-.02-.07-.04-.1-.07-.03-.03-.05-.07-.06-.11-.01-.04-.01-.08,0-.12l1.59-9.25,.05-.31-.23-.22L1.4,17.07s-.06-.08-.08-.13c-.01-.05-.01-.1,0-.15,.02-.05,.05-.09,.09-.13,.04-.03,.09-.05,.14-.06l9.28-1.35,.31-.05,.14-.28L15.44,6.51h0Zm164.62,0s.06-.09,.1-.11c.04-.03,.09-.04,.15-.04,.05,0,.1,.01,.15,.04,.04,.03,.08,.07,.1,.11l4.15,8.41,.14,.28,.31,.05,9.29,1.35c.05,0,.1,.03,.14,.06,.04,.03,.07,.08,.09,.13,.02,.05,.02,.1,0,.15-.01,.05-.04,.1-.08,.13l-6.72,6.55-.23,.22,.05,.31,1.59,9.25c0,.05,0,.1-.02,.15-.02,.05-.05,.09-.09,.12-.04,.03-.09,.05-.14,.05-.05,0-.1,0-.15-.03l-8.3-4.36-.28-.15-.28,.15-8.3,4.36s-.08,.03-.13,.03c-.04,0-.08,0-.12-.03-.04-.02-.07-.04-.1-.07-.03-.03-.04-.07-.06-.11,0-.04-.01-.08,0-.12l1.59-9.25,.05-.31-.23-.22-6.72-6.55s-.06-.08-.08-.13c-.01-.05-.01-.1,0-.15,.02-.05,.05-.09,.09-.13,.04-.03,.09-.05,.14-.06l9.28-1.35,.31-.05,.14-.28,4.15-8.41h0Zm-91.01,27.18s-.08,.03-.13,.03c-.06,0-.12-.02-.16-.05l.29,.02Z"/>
    </g>
  </g>
</svg>